<?xml version="1.0" encoding="utf-8"?>
<!-- Generator: Adobe Illustrator 15.1.0, SVG Export Plug-In . SVG Version: 6.00 Build 0)  -->
<!DOCTYPE svg PUBLIC "-//W3C//DTD SVG 1.1//EN" "http://www.w3.org/Graphics/SVG/1.1/DTD/svg11.dtd">
<svg version="1.1" id="Calque_1" xmlns="http://www.w3.org/2000/svg" xmlns:xlink="http://www.w3.org/1999/xlink" x="0px" y="0px"
	 width="100px" height="100px" viewBox="0 0 100 100" enable-background="new 0 0 100 100" xml:space="preserve">
<g>
	<linearGradient id="SVGID_1_" gradientUnits="userSpaceOnUse" x1="78.3921" y1="58.0591" x2="78.3921" y2="94.5762">
		<stop  offset="0" style="stop-color:#545454"/>
		<stop  offset="1" style="stop-color:#020202"/>
	</linearGradient>
	<path fill="url(#SVGID_1_)" d="M87.489,84.78l5.604-25.634l-29.401-1.087l17.637,36.517C84.354,92.213,86.606,88.823,87.489,84.78z
		"/>
	<linearGradient id="SVGID_2_" gradientUnits="userSpaceOnUse" x1="32.6626" y1="0" x2="32.6626" y2="97.4082">
		<stop  offset="0" style="stop-color:#545454"/>
		<stop  offset="1" style="stop-color:#020202"/>
	</linearGradient>
	<path fill="url(#SVGID_2_)" d="M22.036,87.945V0c-4.855,2.112-8.67,6.432-9.888,12L0.397,65.736
		c-2.012,9.214,3.822,18.312,13.032,20.326l51.897,11.346L49.818,63.017L22.036,87.945z"/>
	<linearGradient id="SVGID_3_" gradientUnits="userSpaceOnUse" x1="74.4556" y1="2.6436" x2="74.4556" y2="50.3301">
		<stop  offset="0" style="stop-color:#545454"/>
		<stop  offset="1" style="stop-color:#020202"/>
	</linearGradient>
	<path fill="url(#SVGID_3_)" d="M99.239,31.042c2.014-9.21-3.821-18.31-13.03-20.323L49.275,2.644L95.021,50.33L99.239,31.042z"/>
</g>
</svg>
